PathFileType	4	(x/y/z)	S10_P20_T26
DataRate	CameraRate	NumFrames	NumMarkers	Units	OrigDataRate	OrigDataStartFrame	OrigNumFrames
240	240	5	51	mm	240	52	414
Frame#	Time	Sternum			R.Acromium			L.Acromium			Top.Head			R.ASIS			L.ASIS			R.PSIS			L.PSIS			R.Great.Tro			L.Great.Tro			R.Iliac.Crest			L.Iliac.Crest			V.Sacral			R.Thigh.Upper.Post			R.Thigh.Lower.Ant			R.Thigh.Lower.Post			R.Thigh.Upper.Ant			R.Knee.Lat			R.Knee.Med			R.Shank.Upper.Post			R.Shank.Lower.Ant			R.Shank.Lower.Post			R.Shank.Upper.Ant			R.Ankle.Lat			R.Ankle.Med			R.Heel.Upper			R.Heel.Med			R.Heel.Lat			R.Toe.Lat			R.Toe.Med			R.Toe.Tip			L.Thigh.Upper.Post			L.Thigh.Lower.Ant			L.Thigh.Lower.Post			L.Thigh.Upper.Ant			L.Knee.Lat			L.Knee.Med			L.Shank.Upper.Post			L.Shank.Lower.Ant			L.Shank.Lower.Post			L.Shank.Upper.Ant			L.Ankle.Lat			L.Ankle.Med			L.Heel.Upper			L.Heel.Med			L.Heel.Lat			L.Toe.Lat			L.Toe.Med			L.Toe.Tip			Cervical.Spine			Back			
		X1	Y1	Z1	X2	Y2	Z2	X3	Y3	Z3	X4	Y4	Z4	X5	Y5	Z5	X6	Y6	Z6	X7	Y7	Z7	X8	Y8	Z8	X9	Y9	Z9	X10	Y10	Z10	X11	Y11	Z11	X12	Y12	Z12	X13	Y13	Z13	X14	Y14	Z14	X15	Y15	Z15	X16	Y16	Z16	X17	Y17	Z17	X18	Y18	Z18	X19	Y19	Z19	X20	Y20	Z20	X21	Y21	Z21	X22	Y22	Z22	X23	Y23	Z23	X24	Y24	Z24	X25	Y25	Z25	X26	Y26	Z26	X27	Y27	Z27	X28	Y28	Z28	X29	Y29	Z29	X30	Y30	Z30	X31	Y31	Z31	X32	Y32	Z32	X33	Y33	Z33	X34	Y34	Z34	X35	Y35	Z35	X36	Y36	Z36	X37	Y37	Z37	X38	Y38	Z38	X39	Y39	Z39	X40	Y40	Z40	X41	Y41	Z41	X42	Y42	Z42	X43	Y43	Z43	X44	Y44	Z44	X45	Y45	Z45	X46	Y46	Z46	X47	Y47	Z47	X48	Y48	Z48	X49	Y49	Z49	X50	Y50	Z50	X51	Y51	Z51	

52	0.2125	-1059.6	1279.8	292.34	-1193.3	1432.6	438.88	-1174.6	1460.9	137.89	-1187.4	1756.9	313.79	-1117	1008	398.48	-1103.9	1032.2	169.05	-1318.9	1028	299.41	-1309.7	1039.3	219.33	-1195	926.68	465.5	-1160.6	970.29	106.17	-1222	1086.5	438.48	-1180.6	1106.4	139.28	-1335.6	998.73	259.66	-1138.3	723.11	476.77	-1061.6	656.75	448.48	-1125.5	633.97	471.06	-1074.4	747.97	448.9	-1109.2	509.71	442.56	-1079.2	505.86	311.34	-1303.9	404.46	415.27	-1310.7	314.67	413.14	-1358.6	354.44	406.65	-1246.1	360.26	423.17	-1420.5	265.68	386.92	-1393.1	260.36	309.34	-1475.8	286.84	325.09	-1490.5	264.27	297.54	-1501.5	277.71	356.08	-1443.4	122.27	422.81	-1405.3	94.642	322.05	-1367.3	53.227	370.83	-1158.5	682.63	121.49	-1074.1	616.76	153.74	-1146	590.8	147.73	-1068.2	708.86	119.67	-1100.5	512.23	166.96	-1107.3	516.98	301.64	-1173.8	303.84	164.41	-1115.5	212.54	188.78	-1179.1	225.5	176.39	-1111.5	288.3	176.47	-1161.8	107.55	191.27	-1153.6	116.52	279.13	-1234.5	76.331	234.43	-1226.3	44.921	267.62	-1226.8	48	203.17	-1048.2	42.306	175.18	-1028.1	47.099	287.12	-969.84	58.39	239.79	-1262.3	1499.5	295.4	-1350.8	1291.2	277.06
53	0.21667	-1054.7	1280.5	292.83	-1188.9	1433.3	438.91	-1168.6	1461.8	138.06	-1182.1	1757.7	314.05	-1112.4	1009.1	398.39	-1099.2	1032.7	168.9	-1313.9	1028.9	298.79	-1304.6	1040.2	218.72	-1190.3	928.01	465.43	-1155.6	970.61	106.03	-1217.4	1087.6	438.06	-1175.3	1107.1	138.96	-1330.7	999.69	259.06	-1130.8	724.82	476.81	-1053.8	659.3	448.6	-1117	635.92	471.55	-1067.4	750.36	448.69	-1099.7	511.6	442.66	-1069.8	508.19	311.34	-1293.2	404.02	415.08	-1298.7	314.08	413.02	-1347.3	353.34	406.52	-1235.2	360.71	423.08	-1408.2	263.98	386.66	-1381.1	258.69	309.42	-1464.4	283.49	324.62	-1478.9	260.32	297.12	-1490.5	274.04	355.61	-1428.1	120.83	423.95	-1389.4	92.983	323.34	-1350.9	53.278	372.77	-1155.8	683.01	121.66	-1071.7	616.58	153.63	-1143.9	591.1	147.86	-1065	708.83	119.3	-1098.9	512.22	166.98	-1106.2	516.96	302.3	-1173	304.07	164.48	-1115.1	212.5	188.77	-1178.5	225.82	176.47	-1110.8	288.27	176.43	-1161.6	107.67	191.33	-1153.5	116.66	279.22	-1234.4	76.507	234.46	-1226.3	45.031	267.64	-1226.7	48.136	203.19	-1048.2	42.295	175.2	-1028.1	46.952	287.3	-969.75	58.175	239.82	-1257	1500.3	295.15	-1345.6	1292.1	276.1
54	0.22083	-1049.7	1281.3	293.3	-1184.4	1433.9	438.93	-1162.7	1462.8	138.24	-1176.8	1758.4	314.31	-1107.8	1010.1	398.28	-1094.4	1033.2	168.75	-1309	1029.9	298.2	-1299.5	1041	218.14	-1185.6	929.35	465.37	-1150.6	970.93	105.9	-1212.9	1088.7	437.65	-1170	1107.8	138.64	-1325.7	1000.7	258.49	-1123.4	726.56	476.85	-1046	661.86	448.69	-1108.6	637.9	472.03	-1060.4	752.75	448.45	-1090.3	513.49	442.72	-1060.5	510.55	311.33	-1282.5	403.41	414.9	-1286.6	313.31	412.9	-1335.9	352	406.4	-1224.2	361.04	423	-1395.8	262.02	386.45	-1368.9	256.78	309.52	-1452.9	279.82	324.18	-1467	256.08	296.73	-1479.2	270	355.17	-1412.6	119.16	425.07	-1373.2	91.22	324.66	-1334.3	53.255	374.71	-1153	683.41	121.83	-1069.3	616.41	153.53	-1141.8	591.42	148.01	-1061.9	708.73	119.05	-1097.4	512.23	166.98	-1105	516.99	302.92	-1172.3	304.3	164.55	-1114.7	212.47	188.76	-1177.9	226.16	176.53	-1110	288.27	176.37	-1161.3	107.81	191.38	-1153.3	116.8	279.31	-1234.3	76.687	234.5	-1226.3	45.15	267.66	-1226.7	48.273	203.21	-1048.2	42.284	175.21	-1028.2	46.805	287.46	-969.66	57.967	239.85	-1251.7	1501.1	294.9	-1340.4	1293	275.14
55	0.225	-1044.8	1282.2	293.75	-1180	1434.6	438.95	-1156.8	1463.8	138.43	-1171.3	1759.2	314.59	-1103.3	1011.2	398.17	-1089.4	1033.7	168.58	-1304	1030.9	297.64	-1294.4	1041.9	217.6	-1180.9	930.71	465.33	-1145.7	971.24	105.77	-1208.3	1089.8	437.24	-1164.8	1108.5	138.32	-1320.8	1001.6	257.95	-1116	728.33	476.87	-1038.3	664.44	448.73	-1100.2	639.91	472.51	-1053.4	755.16	448.16	-1081.1	515.4	442.73	-1051.4	512.95	311.3	-1271.9	402.64	414.74	-1274.4	312.37	412.8	-1324.5	350.45	406.3	-1213.3	361.26	422.92	-1383.3	259.79	386.28	-1356.6	254.66	309.64	-1441.3	275.85	323.78	-1454.9	251.55	296.38	-1467.8	265.61	354.77	-1396.9	117.27	426.18	-1356.7	89.366	325.99	-1317.4	53.166	376.63	-1150.4	683.82	122.02	-1067	616.24	153.43	-1139.8	591.75	148.16	-1059	708.55	118.93	-1095.9	512.25	166.97	-1103.7	517.04	303.49	-1171.5	304.53	164.61	-1114.4	212.45	188.75	-1177.3	226.51	176.58	-1109.3	288.29	176.3	-1161.1	107.95	191.42	-1153.2	116.96	279.38	-1234.3	76.869	234.53	-1226.2	45.279	267.68	-1226.6	48.41	203.24	-1048.2	42.272	175.23	-1028.2	46.659	287.62	-969.57	57.767	239.88	-1246.4	1501.8	294.65	-1335.3	1293.9	274.18
56	0.22917	-1039.8	1283	294.2	-1175.5	1435.2	438.96	-1150.9	1464.8	138.61	-1165.9	1759.9	314.86	-1098.7	1012.3	398.04	-1084.4	1034.3	168.41	-1299.1	1031.9	297.12	-1289.3	1042.7	217.09	-1176.1	932.07	465.29	-1140.8	971.55	105.66	-1203.8	1090.9	436.84	-1159.6	1109.2	138	-1315.9	1002.6	257.46	-1108.6	730.1	476.89	-1030.7	667.02	448.73	-1091.9	641.93	472.97	-1046.5	757.55	447.84	-1072.1	517.3	442.7	-1042.4	515.38	311.27	-1261.3	401.71	414.61	-1262.2	311.29	412.71	-1313	348.69	406.23	-1202.4	361.36	422.85	-1370.7	257.32	386.14	-1344.2	252.33	309.78	-1429.5	271.59	323.42	-1442.6	246.75	296.08	-1456.2	260.89	354.43	-1381	115.18	427.28	-1340	87.434	327.34	-1300.2	53.023	378.53	-1147.7	684.24	122.21	-1064.8	616.06	153.34	-1137.8	592.1	148.33	-1056.4	708.3	118.92	-1094.4	512.28	166.95	-1102.3	517.12	303.97	-1170.8	304.77	164.66	-1114	212.45	188.74	-1176.7	226.88	176.62	-1108.6	288.33	176.21	-1160.8	108.12	191.46	-1153	117.12	279.46	-1234.3	77.053	234.57	-1226.2	45.416	267.7	-1226.6	48.545	203.26	-1048.1	42.261	175.24	-1028.3	46.514	287.75	-969.49	57.574	239.92	-1241.1	1502.6	294.41	-1330.1	1294.9	273.22
